ply
format ascii 1.0
element vertex 37
property float x
property float y
property float z
end_header
-0.03875977545976639 -0.14071963727474213 0.48430708050727844
-0.03875954821705818 -0.1407199651002884 0.48430749773979187
-0.03875939920544624 -0.14072172343730927 0.4843079149723053
-0.038732320070266724 -0.14070725440979004 0.484330952167511
-0.038733430206775665 -0.1406863033771515 0.48432525992393494
-0.0387333482503891 -0.140686497092247 0.48432543873786926
-0.038733139634132385 -0.1406882107257843 0.48432597517967224
-0.038733139634132385 -0.1406882107257843 0.48432597517967224
-0.03873315826058388 -0.1406869739294052 0.4843258857727051
-0.03873315826058388 -0.1406869739294052 0.4843258857727051
-0.03873173147439957 -0.14070910215377808 0.48433244228363037
-0.03872979059815407 -0.14072775840759277 0.48433277010917664
-0.038730256259441376 -0.1407252997159958 0.48434674739837646
-0.03872990235686302 -0.1407301425933838 0.484347939491272
-0.03872630000114441 -0.1407747119665146 0.4843648672103882
-0.038726288825273514 -0.140774205327034 0.48436495661735535
-0.03872635215520859 -0.1407720297574997 0.48436540365219116
-0.03872635215520859 -0.1407720297574997 0.48436540365219116
-0.0387260839343071 -0.14077448844909668 0.4843653738498688
-0.0387260839343071 -0.14077448844909668 0.4843653738498688
-0.03872613608837128 -0.14077360928058624 0.48436546325683594
-0.03872613608837128 -0.14077360928058624 0.48436546325683594
-0.038726091384887695 -0.1407739520072937 0.48436546325683594
-0.038726091384887695 -0.1407739520072937 0.48436546325683594
-0.03872593119740486 -0.1407739669084549 0.4843657612800598
-0.03872586414217949 -0.14077438414096832 0.4843658208847046
-0.03872615844011307 -0.14077143371105194 0.48436594009399414
-0.03872617334127426 -0.1407705843448639 0.48436617851257324
-0.038725774735212326 -0.1407732516527176 0.4843662679195404
-0.03872578963637352 -0.1407725065946579 0.48436638712882996
-0.03872577100992203 -0.14077125489711761 0.4843667149543762
-0.038725659251213074 -0.14077040553092957 0.48436716198921204
-0.03872555121779442 -0.14077062904834747 0.484367311000824
-0.03872555121779442 -0.14077062904834747 0.484367311000824
-0.03872646018862724 -0.14071394503116608 0.48434117436408997
-0.0387205146253109 -0.14071640372276306 0.48437562584877014
-0.038721486926078796 -0.14069774746894836 0.48437750339508057
